<svg id="Layer_1" enable-background="new 0 0 512 512" height="512" viewBox="0 0 512 512" width="512" xmlns="http://www.w3.org/2000/svg"><g><g><g><path d="m456 372.001h-400v-216c0-17.673 14.327-32 32-32h336c17.673 0 32 14.327 32 32z" fill="#463c4b"/></g><g><path d="m424 372.001h-368v-216c0-17.673 14.327-32 32-32h304c17.673 0 32 14.327 32 32z" fill="#555a6e"/></g><g><path d="m88 420.001h336c17.673 0 32-14.327 32-32v-16h-400v16c0 17.673 14.327 32 32 32z" fill="#a5c3dc"/></g><g><path d="m392 420.001h-304c-17.673 0-32-14.327-32-32v-16h368v16c0 17.673-14.327 32-32 32z" fill="#d7e6f0"/></g><g><path d="m216 420.001h72v32h-72z" fill="#a5c3dc"/></g><g><path d="m216 436.001h48v16h-48z" fill="#d7e6f0"/></g><g><path d="m328 476.001h-160v-8c0-8.837 7.163-16 16-16h128c8.837 0 16 7.163 16 16z" fill="#d7e6f0"/></g><g><path d="m328 476.001h-48v-8c0-8.837 7.163-16 16-16h16c8.837 0 16 7.163 16 16z" fill="#a5c3dc"/></g></g><g><path d="m424 332.415h-376c-17.673 0-32-14.327-32-32v-64c0-17.673 14.327-32 32-32h376c17.673 0 32 14.327 32 32v64c0 17.673-14.327 32-32 32z" fill="#289bc3"/></g><g><path d="m392 332.415h-344c-17.673 0-32-14.327-32-32v-64c0-17.673 14.327-32 32-32h344c17.673 0 32 14.327 32 32v64c0 17.673-14.327 32-32 32z" fill="#00d2d2"/></g><g fill="#d7e6f0"><path d="m80.667 252.415c0-12.131-9.869-22-22-22h-16c-3.313 0-6 2.687-6 6v64c0 3.313 2.687 6 6 6h16c12.131 0 22-9.869 22-22 0-6.298-2.659-11.986-6.915-16 4.256-4.014 6.915-9.702 6.915-16zm-22 42h-10v-20h10c5.514 0 10 4.486 10 10s-4.486 10-10 10zm0-32h-10v-20h10c5.514 0 10 4.486 10 10s-4.486 10-10 10z"/><path d="m128 230.415c-3.313 0-6 2.687-6 6v48c0 5.514-4.486 10-10 10s-10-4.486-10-10v-48c0-3.313-2.687-6-6-6s-6 2.687-6 6v48c0 12.131 9.869 22 22 22s22-9.869 22-22v-48c0-3.314-2.687-6-6-6z"/><path d="m394.667 230.415c-3.313 0-6 2.687-6 6v52c0 3.309-2.691 6-6 6s-6-2.691-6-6v-52c0-3.313-2.687-6-6-6s-6 2.687-6 6v52c0 3.309-2.691 6-6 6s-6-2.691-6-6v-52c0-3.313-2.687-6-6-6s-6 2.687-6 6v52c0 9.925 8.075 18 18 18 4.612 0 8.812-1.759 12-4.622 3.188 2.863 7.388 4.622 12 4.622 9.925 0 18-8.075 18-18v-52c0-3.314-2.687-6-6-6z"/><path d="m184 230.415c-3.313 0-6 2.687-6 6v16c0 5.514-4.486 10-10 10s-10-4.486-10-10v-16c0-3.313-2.687-6-6-6s-6 2.687-6 6v16c0 10.051 6.777 18.542 16 21.162v26.838c0 3.313 2.687 6 6 6s6-2.687 6-6v-26.838c9.223-2.619 16-11.111 16-21.162v-16c0-3.314-2.687-6-6-6z"/><path d="m266.667 227.748c-3.313 0-6 2.687-6 6v41.25l-20.634-41.267c-1.243-2.489-4.033-3.798-6.745-3.156-2.708.639-4.621 3.057-4.621 5.839v64c0 3.313 2.687 6 6 6s6-2.687 6-6v-38.583l20.634 41.267c1.032 2.066 3.132 3.317 5.365 3.317.457 0 .919-.052 1.38-.161 2.708-.639 4.621-3.057 4.621-5.839v-66.667c0-3.314-2.687-6-6-6z"/><path d="m306.667 230.415c-12.131 0-22 9.869-22 22v32c0 12.131 9.869 22 22 22s22-9.869 22-22v-32c0-12.131-9.869-22-22-22zm10 54c0 5.514-4.486 10-10 10s-10-4.486-10-10v-32c0-5.514 4.486-10 10-10s10 4.486 10 10z"/></g><g><path d="m490.343 374.758-34.343-34.343 10.979-10.979c10.709-10.709 3.125-29.021-12.021-29.021h-83.67c-7.237 0-14.176 2.878-19.288 8-5.123 5.132-8 12.088-8 19.339v51.619c0 10.248 8.384 17.024 17.124 17.024l-.001.01h32l.001-.01c1.949 0 3.912-.34 5.807-1.052l19.412 19.412c3.622 3.622 8.535 5.657 13.657 5.657h32c5.122 0 10.035-2.035 13.657-5.657l12.687-12.687c3.622-3.622 5.657-8.534 5.657-13.657s-2.036-10.033-5.658-13.655z" fill="#e64178"/></g><g><path d="m458.343 374.758-34.343-34.343 10.979-10.979c10.709-10.709 3.125-29.021-12.021-29.021h-51.67c-7.237 0-14.176 2.878-19.288 8-5.123 5.132-8 12.088-8 19.339v51.619c0 15.145 18.311 22.73 29.021 12.021l10.979-10.979 34.343 34.343c3.622 3.622 8.535 5.657 13.657 5.657 5.122 0 10.035-2.035 13.657-5.657l12.687-12.687c3.622-3.622 5.656-8.534 5.656-13.656 0-5.123-2.035-10.035-5.657-13.657z" fill="#ff6e91"/></g><g><g><path d="m288.006 100.003c-2.935 0-5.76-1.621-7.161-4.424l-21.789-43.578h-67.056c-4.418 0-8-3.582-8-8s3.582-8 8-8h72c3.03 0 5.8 1.712 7.155 4.422l24 48c1.976 3.952.374 8.757-3.577 10.733-1.148.574-2.37.847-3.572.847z" fill="#463c4b"/></g><g><path d="m328 108.001h-192c-4.418 0-8-3.582-8-8v-16c0-4.418 3.582-8 8-8h192c4.418 0 8 3.582 8 8v16c0 4.418-3.582 8-8 8z" fill="#e64178"/></g><g><path d="m280 108.001h-144c-4.418 0-8-3.582-8-8v-16c0-4.418 3.582-8 8-8h144c4.418 0 8 3.582 8 8v16c0 4.418-3.582 8-8 8z" fill="#ff6e91"/></g><g><path d="m291.508 172.001h-119.016c-7.342 0-13.742-4.997-15.522-12.119l-12.97-51.881h176l-12.97 51.881c-1.781 7.122-8.181 12.119-15.522 12.119z" fill="#e64178"/></g><g><path d="m148 124.001 8.97 35.881c1.781 7.123 8.18 12.119 15.522 12.119h71.015c7.342 0 13.742-4.997 15.522-12.119l8.97-35.881z" fill="#ff6e91"/></g><g><path d="m167.994 100.003c-1.203 0-2.423-.272-3.572-.847-3.951-1.976-5.553-6.781-3.577-10.733l24-48c1.976-3.953 6.781-5.552 10.733-3.578 3.951 1.976 5.553 6.781 3.577 10.733l-24 48c-1.401 2.804-4.226 4.425-7.161 4.425z" fill="#555a6e"/></g><g><path d="m240.006 100.003c-2.935 0-5.76-1.621-7.161-4.424l-24-48c-1.976-3.952-.374-8.757 3.577-10.733 3.952-1.976 8.758-.375 10.733 3.578l24 48c1.976 3.952.374 8.757-3.577 10.733-1.148.573-2.37.846-3.572.846z" fill="#555a6e"/></g></g></g></svg>